<svg xmlns="http://www.w3.org/2000/svg" viewBox="0 0 110 111"><defs><radialGradient id="a" cx="60.436%" cy="40.511%" r="95.152%" fx="60.436%" fy="40.511%"><stop offset="0%" stop-opacity=".165"/><stop offset="100%" stop-opacity=".424"/></radialGradient><radialGradient id="b" cx="84.204%" cy="81.399%" r="114.307%" fx="84.204%" fy="81.399%"><stop offset="0%" stop-color="#FFF" stop-opacity=".776"/><stop offset="100%" stop-color="#FFF" stop-opacity=".508"/></radialGradient></defs><g fill="none" fill-rule="evenodd"><circle cx="55" cy="55" r="55" fill="url(#a)" opacity=".679" transform="translate(0 .5)"/><path fill="url(#b)" stroke="#FFF" stroke-opacity=".168" stroke-width="2.5" d="M59 51h18.5a2.5 2.5 0 012.5 2.5v3a2.5 2.5 0 01-2.5 2.5H59v18.5a2.5 2.5 0 01-2.5 2.5h-3a2.5 2.5 0 01-2.5-2.5V59H32.5a2.5 2.5 0 01-2.5-2.5v-3a2.5 2.5 0 012.5-2.5H51V32.5a2.5 2.5 0 012.5-2.5h3a2.5 2.5 0 012.5 2.5V51z" opacity=".7" transform="rotate(45 54.396 55.25)"/></g></svg>