<svg xmlns="http://www.w3.org/2000/svg" width="22" height="22"><defs><radialGradient id="a" cx="60.436%" cy="40.511%" r="95.152%" fx="60.436%" fy="40.511%"><stop offset="0%" stop-opacity=".165"/><stop offset="100%" stop-opacity=".424"/></radialGradient><radialGradient id="b" cx="81.846%" cy="79.235%" r="146.343%" fx="81.846%" fy="79.235%" gradientTransform="matrix(-.55928 -.51344 .82898 -.3464 .62 1.487)"><stop offset="0%" stop-color="#FFF" stop-opacity=".776"/><stop offset="100%" stop-color="#FFF" stop-opacity=".508"/></radialGradient></defs><g fill="none" fill-opacity=".7" fill-rule="evenodd"><circle cx="11" cy="11" r="11" fill="url(#a)"/><path fill="url(#b)" stroke="#FFF" stroke-opacity=".168" stroke-width=".5" d="M12.987 14.81a.502.502 0 01-.1.01h-3.9a.5.5 0 01-.5-.5v-.637a.5.5 0 01.5-.5h3.6V6.118a.5.5 0 01.5-.5h.6a.5.5 0 01.5.5v8.202a.5.5 0 01-.5.5h-.6a.502.502 0 01-.1-.01z" transform="rotate(45 11.337 10.219)"/></g></svg>