<svg xmlns="http://www.w3.org/2000/svg" xmlns:xlink="http://www.w3.org/1999/xlink" width="17" height="17" version="1.1" viewBox="0 0 17 17"><desc>Created with Sketch.</desc><g id="Page-1" fill="none" fill-rule="evenodd" stroke="none" stroke-width="1"><g id="下载管理-/-文件名hover" transform="translate(-410.000000, -56.000000)"><rect width="460" height="500" x="0" y="0" fill="#434348"/><g id="download-/-pause" transform="translate(410.000000, 56.000000)"><g id="编组-2-copy"><circle id="Background" cx="8.5" cy="8.5" r="8.5" fill="#54545A"/><path id="Path" fill="#ACADB7" fill-rule="nonzero" d="M7.34585923,12.0682292 C7.62476548,12.0682292 7.73544257,11.953125 7.73544257,11.6742187 L7.73544257,5.73307292 C7.73544257,5.44973958 7.62476548,5.3390625 7.34585923,5.3390625 L6.42059882,5.3390625 C6.13726548,5.3390625 6.0265884,5.44973958 6.0265884,5.73307292 L6.0265884,11.6742187 C6.0265884,11.953125 6.13726548,12.0682292 6.42059882,12.0682292 L7.34585923,12.0682292 Z"/><path id="Path" fill="#ACADB7" fill-rule="nonzero" d="M10.5794006,12.0682292 C10.8627339,12.0682292 10.973411,11.953125 10.973411,11.6742187 L10.973411,5.73307292 C10.973411,5.44973958 10.8627339,5.3390625 10.5794006,5.3390625 L9.6541402,5.3390625 C9.37523395,5.3390625 9.26455687,5.44973958 9.26455687,5.73307292 L9.26455687,11.6742187 C9.26455687,11.953125 9.37523395,12.0682292 9.6541402,12.0682292 L10.5794006,12.0682292 Z"/></g></g></g></g></svg>