<svg xmlns="http://www.w3.org/2000/svg" xmlns:xlink="http://www.w3.org/1999/xlink" width="22" height="22" version="1.1" viewBox="0 0 22 22"><defs><radialGradient id="radialGradient-1" cx="60.436%" cy="38.56%" r="100%" fx="60.436%" fy="38.56%"><stop offset="1.951%" stop-color="#FFF" stop-opacity=".165"/><stop offset="97.103%" stop-color="#FFF" stop-opacity=".424"/></radialGradient></defs><g id="Page-1" fill="none" fill-rule="evenodd" stroke="none" stroke-width="1"><g id="Privicy/CN-Copy" transform="translate(-221.000000, -25.000000)"><g id="Group" transform="translate(19.000000, 10.000000)"><g id="Icons/search-default-icon" transform="translate(202.000000, 15.000000)"><circle id="Background" cx="11" cy="11" r="11" fill="url(#radialGradient-1)" fill-opacity=".3" fill-rule="evenodd"/><path id="Combined-Shape" fill="#FFF" fill-opacity=".45" fill-rule="nonzero" stroke="#FFF" stroke-opacity=".17" stroke-width=".5" d="M10.2,6 C12.5076923,6 14.4,7.88103711 14.4,10.1637011 C14.4,10.9517031 14.174359,11.6888663 13.7846154,12.3192679 L13.7846154,12.3192679 L15.7025641,14.2206406 C15.9076923,14.4239959 16,14.6883579 16,14.9578038 C16,15.5424504 15.5538462,16 14.9538462,16 C14.6769231,16 14.4,15.9034062 14.2,15.7051347 L14.2,15.7051347 L12.2666667,13.7834265 C11.6512821,14.1291307 10.9487179,14.3274021 10.2,14.3274021 C7.89230769,14.3274021 6,12.4514489 6,10.1637011 C6,7.88103711 7.89230769,6 10.2,6 Z M10.2,7.46415862 C8.6974359,7.46415862 7.47692308,8.67920691 7.47692308,10.1637011 C7.47692308,11.6532791 8.6974359,12.8632435 10.2,12.8632435 C11.7025641,12.8632435 12.9230769,11.6532791 12.9230769,10.1637011 C12.9230769,8.67920691 11.7025641,7.46415862 10.2,7.46415862 Z"/></g></g></g></g></svg>