<svg xmlns="http://www.w3.org/2000/svg" width="30" height="30"><defs><radialGradient id="a" cx="50%" cy="65.549%" r="47.661%" fx="50%" fy="65.549%" gradientTransform="matrix(0 1 -.93888 0 1.115 .155)"><stop offset="0%" stop-color="#FFF" stop-opacity=".35"/><stop offset="43.526%" stop-color="#FFF" stop-opacity=".36"/><stop offset="100%" stop-color="#FFF" stop-opacity=".5"/></radialGradient><radialGradient id="b" cx="50%" cy="63.339%" r="50.412%" fx="50%" fy="63.339%" gradientTransform="matrix(0 1 -.93888 0 1.095 .133)"><stop offset="0%" stop-color="#FFF" stop-opacity=".45"/><stop offset="61.215%" stop-color="#FFF" stop-opacity=".55"/><stop offset="100%" stop-color="#FFF" stop-opacity=".7"/></radialGradient></defs><g fill="none" fill-opacity=".5" fill-rule="evenodd" opacity=".5"><path fill="url(#a)" d="M15.504 26.91H5.012a2.316 2.316 0 01-1.975-1.106 2.275 2.275 0 01-.07-2.252L8.345 13.39l4.723-8.923a2.758 2.758 0 012.433-1.468 2.747 2.747 0 012.433 1.462l4.727 8.929 5.217 9.855c.408.77.391 1.697-.045 2.452a2.426 2.426 0 01-2.101 1.214h-10.23z" transform="rotate(90 15.438 14.954)"/><path fill="url(#b)" stroke="#FFF" stroke-opacity=".437" stroke-width=".5" d="M15.504 26.91H5.012a2.316 2.316 0 01-1.975-1.106h0a2.275 2.275 0 01-.07-2.252L8.345 13.39l4.723-8.923a2.758 2.758 0 012.433-1.468h0a2.747 2.747 0 012.433 1.462l4.727 8.929 5.217 9.855c.408.77.391 1.697-.045 2.452h0a2.426 2.426 0 01-2.101 1.214h-10.23z" transform="rotate(90 15.438 14.954)"/></g></svg>