<svg xmlns="http://www.w3.org/2000/svg" width="8" height="8"><defs><radialGradient id="a" cx="50%" cy="50%" r="153.9%" fx="50%" fy="50%" gradientTransform="matrix(.32489 0 0 .91326 .338 .043)"><stop offset="0%" stop-color="#FFF" stop-opacity=".11"/><stop offset="53.877%" stop-color="#FFF" stop-opacity=".228"/><stop offset="100%" stop-color="#FFF" stop-opacity=".54"/></radialGradient></defs><path fill="url(#a)" fill-rule="evenodd" stroke="#FFF" stroke-opacity=".5" stroke-width=".576" d="M11 28.386v-.446c0-.246.2-.445.446-.445h1.394c.246 0 .446.2.446.445l-.002 6.29a.3.3 0 01-.3.3h-1.689a.295.295 0 01-.295-.294zm4 0v-.446c0-.246.2-.445.446-.445h1.394c.246 0 .446.2.446.445l-.002 6.29a.3.3 0 01-.3.3h-1.689a.295.295 0 01-.295-.294z" opacity=".9" transform="translate(-10 -27)"/></svg>