<svg xmlns="http://www.w3.org/2000/svg" viewBox="0 0 12 12"><defs><radialGradient id="a" cx="84.204%" cy="81.399%" r="114.307%" fx="84.204%" fy="81.399%"><stop offset="0%" stop-color="#FFF" stop-opacity=".776"/><stop offset="100%" stop-color="#FFF" stop-opacity=".508"/></radialGradient></defs><path fill="url(#a)" fill-rule="evenodd" stroke="#FFF" stroke-opacity=".168" stroke-width=".5" d="M6.83 5.164h3.5a.25.25 0 01.25.25v1.2a.25.25 0 01-.25.25h-3.5v3.5a.25.25 0 01-.25.25h-1.2a.25.25 0 01-.25-.25v-3.5h-3.5a.25.25 0 01-.25-.25v-1.2a.25.25 0 01.25-.25h3.5v-3.5a.25.25 0 01.25-.25h1.2a.25.25 0 01.25.25v3.5z" opacity=".7"/></svg>