<svg xmlns="http://www.w3.org/2000/svg" width="13" height="13"><defs><radialGradient id="a" cx="84.204%" cy="81.399%" r="117.9%" fx="84.204%" fy="81.399%" gradientTransform="matrix(-.7142 -.65567 .6202 -.75505 .939 1.98)"><stop offset="0%" stop-color="#FFF" stop-opacity=".776"/><stop offset="100%" stop-color="#FFF" stop-opacity=".508"/></radialGradient></defs><path fill="url(#a)" fill-opacity=".2" fill-rule="evenodd" stroke="#FFF" stroke-opacity=".04" stroke-width=".5" d="M11.403 8.617a.375.375 0 00-.473-.241l-.488.159a4.585 4.585 0 00-4.124-6.573 4.585 4.585 0 00-4.58 4.58 4.585 4.585 0 004.58 4.58.375.375 0 000-.751 3.833 3.833 0 01-3.83-3.83 3.833 3.833 0 013.83-3.828A3.833 3.833 0 019.765 8.21l-.167-.513a.375.375 0 00-.714.232l.442 1.363a.375.375 0 00.473.24l1.363-.442a.375.375 0 00.24-.473z" transform="rotate(-60 6.58 6.542)"/></svg>