<svg xmlns="http://www.w3.org/2000/svg" xmlns:xlink="http://www.w3.org/1999/xlink" width="13" height="13" version="1.1" viewBox="0 0 13 13"><title>Icons/subtitleEditorExit-default-icon</title><desc>Created with Sketch.</desc><defs><radialGradient id="radialGradient-1" cx="81.846%" cy="79.235%" r="118.844%" fx="81.846%" fy="79.235%" gradientTransform="translate(0.818461,0.792345),scale(0.888889,1.000000),rotate(-140.784020),translate(-0.818461,-0.792345)"><stop offset="0%" stop-color="#FFF" stop-opacity=".776"/><stop offset="100%" stop-color="#FFF" stop-opacity=".508"/></radialGradient></defs><g id="Icons/subtitleEditorExit-default-icon" fill="none" fill-opacity=".7" fill-rule="evenodd" stroke="none" stroke-opacity=".168" stroke-width="1"><path id="Combined-Shape" fill="url(#radialGradient-1)" stroke="#FFF" stroke-width=".5" d="M10.8320184,6.18117434 C10.9332068,6.25100161 10.9995207,6.36775659 10.9995207,6.5 C10.9995207,6.50894241 10.9992175,6.51781399 10.9986207,6.52660503 C10.9998134,6.6219521 10.9651717,6.71782271 10.8941731,6.79228721 C10.8900282,6.79663445 10.8857803,6.80088233 10.881433,6.80502723 L9.44602955,8.173621 C9.28531441,8.32685578 9.0325833,8.32685578 8.87186816,8.173621 C8.72069746,8.02948643 8.71499356,7.79009421 8.85912814,7.63892351 C8.86327304,7.63457627 8.86752092,7.63032839 8.87186816,7.62618349 L9.64703437,6.88709677 L4.48472941,6.88709677 C4.27094177,6.88709677 4.09763264,6.71378765 4.09763264,6.5 C4.09763264,6.28621235 4.27094177,6.11290323 4.48472941,6.11290323 L9.61337246,6.11290323 L8.80420259,5.34139552 C8.6530319,5.19726095 8.64732799,4.95786873 8.79146257,4.80669803 C8.79560747,4.80235079 8.79985535,4.79810291 8.80420259,4.79395801 C8.96491773,4.64072323 9.21764884,4.64072323 9.37836398,4.79395801 L10.8137675,6.16255178 C10.820107,6.16859629 10.8261908,6.17480831 10.8320184,6.18117434 Z M2.00011037,2.89643241 C2.00003693,2.89332943 2,2.89021741 2,2.88709677 C2,2.67330913 2.17330913,2.5 2.38709677,2.5 L5.80816851,2.5 C6.02195615,2.5 6.19526528,2.67330913 6.19526528,2.88709677 C6.19526528,3.10088442 6.02195615,3.27419355 5.80816851,3.27419355 L2.81198683,3.27419355 L2.81198683,9.72580645 L5.80816851,9.72580645 C6.02195615,9.72580645 6.19526528,9.89911558 6.19526528,10.1129032 C6.19526528,10.3266909 6.02195615,10.5 5.80816851,10.5 L2.38709677,10.5 C2.17330913,10.5 2,10.3266909 2,10.1129032 C2,10.1097826 2.00003693,10.1066706 2.00011037,10.1035676 C2.00003692,10.1003895 2,10.0972023 2,10.0940066 L2,2.90599341 C2,2.90279765 2.00003692,2.89961052 2.00011037,2.89643241 Z"/></g></svg>