<svg xmlns="http://www.w3.org/2000/svg" xmlns:xlink="http://www.w3.org/1999/xlink" width="13" height="13" version="1.1" viewBox="0 0 13 13"><title>Icons/subtitleDelete-default-icon</title><desc>Created with Sketch.</desc><defs><radialGradient id="radialGradient-1" cx="81.846%" cy="79.235%" r="114.17%" fx="81.846%" fy="79.235%" gradientTransform="translate(0.818461,0.792345),scale(0.952153,1.000000),rotate(-138.842503),translate(-0.818461,-0.792345)"><stop offset="0%" stop-color="#FFF" stop-opacity=".776"/><stop offset="100%" stop-color="#FFF" stop-opacity=".508"/></radialGradient></defs><g id="Icons/subtitleDelete-default-icon" fill="none" fill-opacity=".7" fill-rule="evenodd" stroke="none" stroke-opacity=".168" stroke-width="1"><path id="Icon---Delete" fill="url(#radialGradient-1)" stroke="#FFF" stroke-width=".5" d="M1.275,3.79185912 L1.275,4.06041871 C1.275,4.17555766 1.36833856,4.26889621 1.4834775,4.26889621 L2.7672856,4.26889621 L2.7672856,10.1039708 C2.7672856,10.8611612 3.43541348,11.475 4.25957121,11.475 L8.73842841,11.475 C9.56258614,11.475 10.230714,10.8611612 10.230714,10.1039708 L10.230714,4.26889621 L11.5165225,4.26889621 C11.6316614,4.26889621 11.725,4.17555766 11.725,4.06041871 L11.725,3.79185912 C11.725,3.67672018 11.6316614,3.58338162 11.5165225,3.58338162 L1.4834775,3.58338162 C1.36833856,3.58338162 1.275,3.67672018 1.275,3.79185912 Z M4.31864271,10.7894854 C3.87504467,10.7894854 3.51542879,10.482566 3.51542879,10.1039708 L3.51542879,4.26889621 L5.12185662,4.26889621 L5.12185662,10.7894854 L4.31864271,10.7894854 Z M7.2461428,10.7894854 L5.7538572,10.7894854 L5.7538572,4.26889621 L7.2461428,4.26889621 L7.2461428,10.7894854 Z M8.68235748,10.7894854 L7.87814338,10.7894854 L7.87814338,4.26889621 L9.48657159,4.26889621 L9.48657159,10.1039708 C9.48657159,10.482566 9.1265079,10.7894854 8.68235748,10.7894854 Z M5.0077144,1.7334775 L5.0077144,2.00203709 C5.0077144,2.11717604 5.10105295,2.21051459 5.2161919,2.21051459 L7.78580849,2.21051459 C7.90094743,2.21051459 7.99428599,2.11717604 7.99428599,2.00203709 L7.99428599,1.7334775 C7.99428599,1.61833856 7.90094743,1.525 7.78580849,1.525 L5.2161919,1.525 C5.10105295,1.525 5.0077144,1.61833856 5.0077144,1.7334775 Z"/></g></svg>