<svg xmlns="http://www.w3.org/2000/svg" pointer-events="none" viewBox="0 0 24 24"><g fill="none" fill-rule="evenodd" pointer-events="none"><circle cx="12" cy="12" r="11.5" fill="#848484" stroke="#808086" pointer-events="none"/><path fill="#3B3B40" d="M14.404 12l3.23 3.23a1.232 1.232 0 010 1.742l-.662.662a1.232 1.232 0 01-1.742 0L12 14.404l-3.23 3.23a1.232 1.232 0 01-1.742 0l-.662-.662a1.232 1.232 0 010-1.742L9.596 12l-3.23-3.23a1.232 1.232 0 010-1.742l.662-.662a1.232 1.232 0 011.742 0L12 9.596l3.23-3.23a1.232 1.232 0 011.742 0l.662.662a1.232 1.232 0 010 1.742L14.404 12z" pointer-events="none"/></g></svg>