<svg xmlns="http://www.w3.org/2000/svg" xmlns:xlink="http://www.w3.org/1999/xlink" width="15" height="8" version="1.1" viewBox="0 0 15 8"><desc>Created with Sketch.</desc><g id="vip-icon" fill="none" fill-rule="evenodd" stroke="none" stroke-width="1"><rect id="Rectangle" width="15" height="8" x="0" y="0" fill="#FF7800" rx="1"/><path id="VIP" fill="#4A4A4A" fill-rule="nonzero" d="M5.09672134,6.4 L6.62333266,1.82016602 L5.59183852,1.82016602 L4.56986587,5.35263672 L4.51273696,5.35263672 L3.47172134,1.82016602 L2.38944594,1.82016602 L3.93827407,6.4 L5.09672134,6.4 Z M8.2096493,6.4 L8.2096493,1.82016602 L7.25115321,1.82016602 L7.25115321,6.4 L8.2096493,6.4 Z M10.1260441,6.4 L10.1260441,4.9559082 L11.0305851,4.9559082 C11.9954288,4.9559082 12.6651066,4.32749023 12.6651066,3.39438477 C12.6651066,2.44858398 12.0208195,1.82016602 11.0781925,1.82016602 L9.16754797,1.82016602 L9.16754797,6.4 L10.1260441,6.4 Z M10.8211124,4.20371094 L10.1260441,4.20371094 L10.1260441,2.58188477 L10.8242862,2.58188477 C11.3765323,2.58188477 11.6907413,2.86435547 11.6907413,3.39755859 C11.6907413,3.91806641 11.3701847,4.20371094 10.8211124,4.20371094 Z"/></g></svg>