<svg xmlns="http://www.w3.org/2000/svg" xmlns:xlink="http://www.w3.org/1999/xlink" width="44" height="44"><defs><linearGradient id="c" x1="-.705%" x2="100.312%" y1="50.002%" y2="50.002%"><stop offset="0%" stop-color="#00D2FF"/><stop offset="100%" stop-color="#0AF"/></linearGradient><linearGradient id="d" x1="-9.291%" x2="100.957%" y1="38.735%" y2="57.349%"><stop offset="0%" stop-color="#00D2FF"/><stop offset="100%" stop-color="#0AF"/></linearGradient><linearGradient id="e" x1="-.002%" x2="99.683%" y1="50.004%" y2="50.004%"><stop offset="0%" stop-color="#FF4B7D"/><stop offset="100%" stop-color="#FF2D64"/></linearGradient><circle id="a" cx="22" cy="22" r="22"/></defs><g fill="none" fill-rule="evenodd"><mask id="b" fill="#fff"><use xlink:href="#a"/></mask><use fill="#FFF" xlink:href="#a"/><g fill-rule="nonzero" mask="url(#b)"><path fill="url(#c)" d="M2.515 15.613a4.816 4.816 0 004.818 8.34l10.395-6.003-9.632-5.56-5.58 3.223z" transform="translate(12.375 9.625)"/><path fill="url(#d)" d="M17.725 17.95l-9.629-5.56-1.678.97z" transform="translate(12.375 9.625)" style="mix-blend-mode:multiply"/><path fill="url(#e)" d="M17.725 6.831L7.333.829a4.815 4.815 0 10-4.818 8.338l5.581 3.223 9.629 5.558c4.275-2.47 4.275-8.646 0-11.117z" transform="translate(12.375 9.625)"/></g></g></svg>